<?xml version="1.0" encoding="UTF-8"?>
<svg id="Layer_2" data-name="Layer 2" xmlns="http://www.w3.org/2000/svg" viewBox="0 0 2070 2070">
  <defs>
    <style>
      .cls-1 {
        fill: #42af3c;
        stroke-width: 0px;
      }
    </style>
  </defs>
  <g id="objects">
    <g>
      <path class="cls-1" d="M1988.65,632.12c-25.2-59.56-55.64-116.2-91.12-169.55-1.88,2.26-3.92,4.43-6.1,6.5-13.56,12.85-26.95,25.86-40.19,39.06,30.41,47.04,56.72,96.73,78.75,148.8,50.64,119.73,76.32,246.93,76.32,378.07s-25.68,258.34-76.32,378.07c-48.92,115.65-118.96,219.53-208.17,308.75-89.22,89.21-193.1,159.25-308.75,208.17-119.73,50.64-246.93,76.32-378.07,76.32s-258.34-25.68-378.07-76.32c-115.65-48.92-219.53-118.96-308.75-208.17-89.21-89.22-159.25-193.1-208.17-308.75-50.64-119.73-76.32-246.93-76.32-378.07s25.68-258.34,76.32-378.07c48.92-115.65,118.96-219.53,208.17-308.75,89.22-89.21,193.1-159.25,308.75-208.17,119.73-50.64,246.93-76.32,378.07-76.32s258.34,25.68,378.07,76.32c115.65,48.92,219.53,118.96,308.75,208.17,10.02,10.03,19.8,20.24,29.32,30.63,17.15-10.27,34.41-20.26,51.78-29.98,1.57-.88,3.16-1.7,4.78-2.45-13.15-14.75-26.77-29.17-40.84-43.24-95.04-95.04-205.73-169.66-328.98-221.79C1310.26,27.37,1174.71,0,1035,0s-275.26,27.37-402.88,81.35c-123.25,52.13-233.94,126.75-328.98,221.79-95.04,95.04-169.66,205.73-221.79,328.98C27.37,759.74,0,895.29,0,1035s27.37,275.26,81.35,402.88c52.13,123.25,126.75,233.94,221.79,328.98,95.04,95.04,205.73,169.66,328.98,221.79,127.62,53.98,263.17,81.35,402.88,81.35s275.26-27.37,402.88-81.35c123.25-52.13,233.94-126.75,328.98-221.79,95.04-95.04,169.66-205.73,221.79-328.98,53.98-127.62,81.35-263.17,81.35-402.88s-27.37-275.26-81.35-402.88Z"/>
      <path class="cls-1" d="M556.19,959.05c18.01-14.23,40.56-22.07,63.51-22.07,15.84,0,31.7,3.75,45.86,10.85l307.78,154.18c140.29-174.55,270.16-316.66,396.09-433.48,101.17-93.84,202.7-174.17,307.57-243.16-161.31-169.81-389.29-275.69-642-275.69-488.96,0-885.32,396.36-885.32,885.32s396.36,885.32,885.32,885.32,885.32-396.36,885.32-885.32c0-169.77-47.77-328.37-130.64-463.1-94.42,101.7-182.38,215.05-270.96,348.62-109.86,165.63-210.9,348.37-308.61,525.1-18.19,32.89-48.62,87.94-108.93,105.24-11.79,3.38-24.05,5.09-36.42,5.09h-.01c-52.81,0-96.94-29.91-133.14-59.16-128.48-103.84-230.91-216.39-339.35-335.55-15.69-17.24-31.92-35.08-48.07-52.69-19.15-20.9-28.83-49.09-26.57-77.34,2.27-28.27,16.33-54.57,38.57-72.16Z"/>
      <path class="cls-1" d="M989.94,1177.44l-351.25-175.96c-14.72-7.37-32.37-5.56-45.29,4.65h0c-19.31,15.27-21.61,43.74-4.98,61.89,123.69,134.96,237.15,265.93,380.9,382.11,33.24,26.87,74.22,54.84,115.31,43.06,34.85-9.99,55.42-44.87,72.96-76.6,207.73-375.72,391.06-705.22,692.55-991.05,13.01-12.33-2.3-33.09-17.94-24.34-294.64,164.82-549.87,406.63-842.27,776.24Z"/>
    </g>
  </g>
</svg>